<?xml version="1.0" standalone="no"?>
<!DOCTYPE svg PUBLIC "-//W3C//DTD SVG 20010904//EN"
 "http://www.w3.org/TR/2001/REC-SVG-20010904/DTD/svg10.dtd">
<svg version="1.0" xmlns="http://www.w3.org/2000/svg"
 width="1408.000000pt" height="1408.000000pt" viewBox="0 0 1408.000000 1408.000000"
 preserveAspectRatio="xMidYMid meet">
<metadata>
Created by potrace 1.14, written by Peter Selinger 2001-2017
</metadata>
<g transform="translate(0.000000,1408.000000) scale(0.100000,-0.100000)"
fill="#000000" stroke="none">
<path d="M899 10946 c-2 -2 -35 -7 -74 -11 -38 -3 -101 -13 -140 -21 -89 -19
-286 -85 -303 -101 -6 -6 -22 -15 -35 -19 -32 -10 -125 -75 -172 -120 -49 -48
-85 -95 -114 -153 -54 -105 -51 48 -48 -2496 2 -1298 6 -2382 10 -2410 12 -88
16 -119 21 -145 3 -14 8 -41 10 -60 7 -49 16 -91 23 -115 4 -11 8 -27 9 -35 5
-26 26 -104 34 -125 4 -11 13 -38 19 -60 44 -145 154 -381 252 -540 10 -16 23
-40 29 -52 5 -13 14 -23 19 -23 5 0 14 -13 21 -30 7 -16 16 -30 21 -30 5 0 9
-5 9 -11 0 -6 11 -25 25 -43 14 -17 34 -42 44 -56 84 -108 129 -160 230 -260
64 -63 152 -144 196 -180 44 -35 82 -68 83 -72 2 -5 10 -8 18 -8 8 0 14 -4 14
-9 0 -5 8 -12 19 -16 10 -3 32 -17 47 -31 44 -38 53 -44 60 -44 4 0 22 -11 40
-25 18 -14 37 -25 41 -25 5 0 19 -9 31 -20 12 -11 24 -20 27 -20 10 -1 40 -14
45 -20 3 -4 21 -15 40 -24 92 -47 188 -95 220 -108 19 -9 51 -23 70 -31 79
-35 196 -79 212 -80 10 -1 18 -4 18 -7 0 -4 6 -7 13 -7 6 -1 41 -11 77 -23 36
-12 76 -24 90 -26 14 -3 32 -7 40 -11 8 -3 20 -7 25 -8 37 -9 164 -36 185 -41
14 -3 41 -7 60 -10 19 -2 42 -6 50 -9 8 -2 42 -7 75 -11 33 -3 68 -8 78 -10
84 -15 398 -21 607 -11 165 9 207 13 385 38 187 27 182 26 250 43 33 8 63 12
67 10 5 -3 8 -1 8 4 0 5 6 9 13 9 17 1 52 9 117 28 30 9 63 18 72 20 9 2 26 8
37 14 11 6 29 11 40 11 12 0 21 5 21 10 0 6 3 9 8 8 12 -5 97 28 225 86 42 19
78 34 80 33 1 -1 16 8 34 21 17 12 34 22 38 22 7 0 190 107 210 122 6 5 46 34
90 65 43 31 85 61 91 67 7 6 34 29 60 51 52 43 174 164 240 235 54 60 184 234
184 248 0 5 4 12 9 14 15 5 130 204 181 313 70 148 164 387 175 445 6 33 19
77 23 85 4 6 7 15 8 21 1 6 12 51 24 100 12 49 24 98 26 109 2 11 6 29 8 40
18 83 36 182 46 245 7 41 14 83 16 93 2 10 6 46 10 80 3 34 8 73 9 87 14 114
17 154 31 360 3 47 7 438 8 870 3 762 7 884 26 936 5 13 8 24 5 24 -2 0 2 18
10 40 8 22 12 40 8 40 -3 0 -1 6 4 13 6 6 18 36 28 65 11 28 23 52 27 52 4 0
7 3 6 8 -1 8 13 45 21 52 3 3 20 25 36 50 42 63 160 179 231 227 72 48 170 96
244 118 30 9 65 21 78 26 15 6 21 6 17 -1 -3 -5 9 -4 27 2 65 23 376 13 503
-17 98 -22 152 -44 239 -94 132 -76 229 -186 296 -336 48 -107 61 -142 75
-201 2 -10 11 -47 19 -81 25 -101 35 -165 51 -328 16 -159 26 -773 12 -782 -4
-3 -4 -10 0 -16 10 -15 10 -168 -1 -185 -4 -6 -3 -12 1 -12 5 0 7 -28 6 -62
-2 -35 -4 -67 -3 -73 0 -5 1 -44 3 -85 1 -41 -1 -81 -6 -87 -5 -7 -6 -13 -1
-13 11 0 11 -90 1 -107 -4 -6 -4 -14 0 -16 10 -6 9 -169 -1 -185 -4 -7 -3 -12
1 -12 5 0 7 -28 6 -62 -2 -35 -4 -67 -3 -73 0 -5 1 -44 3 -85 1 -41 -1 -81 -6
-87 -5 -7 -6 -13 -1 -13 10 0 11 -631 0 -648 -3 -6 -3 -13 1 -15 10 -6 9 -109
-1 -125 -4 -6 -4 -12 1 -12 10 0 10 -571 0 -587 -4 -6 -4 -14 0 -16 10 -6 9
-169 -1 -185 -4 -7 -3 -12 1 -12 5 0 7 -28 6 -63 -2 -34 -4 -66 -3 -72 0 -5 1
-44 3 -85 1 -41 -1 -81 -6 -88 -5 -6 -6 -12 -1 -12 5 0 9 -36 9 -81 -1 -157
42 -256 162 -376 46 -46 89 -83 96 -83 7 0 22 -8 33 -17 26 -24 155 -86 204
-99 8 -2 47 -13 85 -24 39 -11 79 -22 90 -24 11 -2 38 -7 60 -12 22 -4 49 -8
60 -8 11 -1 25 -4 30 -8 12 -7 432 -3 461 5 12 3 39 8 60 11 290 47 536 178
651 347 40 59 75 158 77 217 1 26 5 52 9 59 4 6 3 14 -2 18 -7 3 -7 15 -1 29
5 13 6 26 3 29 -10 10 -9 67 1 71 8 3 8 5 0 5 -10 1 -10 71 1 99 2 6 1 12 -4
12 -5 0 -5 17 -1 38 4 21 3 48 -1 60 -5 14 -4 22 2 22 6 0 7 5 4 11 -12 18
-12 68 -1 73 8 3 8 5 0 5 -10 1 -10 71 1 99 2 6 1 12 -4 12 -5 0 -5 17 -1 38
4 21 3 48 -1 60 -5 14 -4 22 2 22 6 0 7 5 4 11 -12 18 -12 68 -1 73 8 3 8 5 0
5 -10 1 -10 71 1 99 2 6 1 12 -4 12 -5 0 -5 17 -1 38 4 21 3 48 -1 60 -5 14
-4 22 2 22 6 0 7 5 4 11 -12 18 -12 68 -1 73 8 3 8 5 0 5 -10 1 -10 71 1 99 2
6 1 12 -4 12 -5 0 -5 17 -1 38 4 21 3 48 -1 60 -5 14 -4 22 2 22 6 0 7 5 4 11
-12 18 -12 68 -1 73 8 3 8 5 0 5 -10 1 -10 71 1 99 2 6 1 12 -4 12 -5 0 -5 17
-1 38 4 21 3 48 -1 60 -5 14 -4 22 2 22 6 0 7 5 4 11 -12 18 -12 68 -1 73 8 3
8 5 0 5 -10 1 -10 71 1 99 2 6 1 12 -4 12 -5 0 -5 17 -1 38 4 21 3 48 -1 60
-5 14 -4 22 2 22 6 0 7 5 4 11 -12 18 -12 68 -1 73 8 3 8 5 0 5 -10 1 -10 71
1 99 2 6 1 12 -4 12 -5 0 -5 17 -1 38 4 21 3 48 -1 60 -5 14 -4 22 2 22 6 0 7
5 4 11 -12 18 -12 68 -1 73 8 3 8 5 0 5 -10 1 -10 71 1 99 2 6 1 12 -4 12 -5
0 -5 17 -1 38 4 21 3 48 -1 60 -5 14 -4 22 2 22 6 0 7 5 4 11 -12 18 -12 68
-1 73 8 3 8 5 0 5 -10 1 -10 71 1 99 2 6 1 12 -4 12 -5 0 -5 17 -1 38 4 21 3
48 -1 60 -5 14 -4 22 2 22 6 0 7 5 4 11 -12 18 -12 68 -1 73 8 3 8 5 0 5 -10
1 -10 71 1 99 2 6 1 12 -4 12 -5 0 -5 17 -1 38 4 21 3 48 -1 60 -5 14 -4 22 2
22 6 0 7 5 4 11 -12 18 -12 68 -1 73 8 3 8 5 0 5 -10 1 -10 71 1 99 2 6 1 12
-4 12 -5 0 -5 17 -1 38 4 21 3 48 -1 60 -5 14 -4 22 2 22 6 0 7 5 4 11 -12 18
-12 68 -1 73 8 3 8 5 0 5 -10 1 -10 71 1 99 2 6 1 12 -4 12 -5 0 -5 17 -1 38
4 21 3 48 -1 60 -5 14 -4 22 2 22 6 0 7 5 4 11 -12 18 -12 68 -1 73 8 3 8 5 0
5 -10 1 -10 71 1 99 2 6 1 12 -4 12 -5 0 -5 17 -1 38 3 21 3 47 0 58 -4 10 -4
29 1 42 5 12 5 22 0 22 -5 0 -5 17 -1 38 4 21 3 48 -1 60 -5 12 -4 24 2 27 5
4 6 11 2 18 -13 22 -10 161 5 192 34 67 106 152 202 235 91 80 264 167 365
184 17 3 43 8 58 12 52 11 81 13 177 14 97 0 219 -7 255 -14 186 -38 282 -76
380 -150 49 -37 117 -96 110 -96 -3 0 10 -16 28 -35 29 -31 126 -207 131 -238
1 -7 4 -16 7 -22 18 -31 76 -260 84 -335 7 -61 16 -138 20 -170 3 -19 7 -84
10 -144 3 -60 7 -111 9 -114 3 -2 1 -15 -4 -28 -5 -13 -6 -24 -2 -24 4 0 7
-836 6 -1858 0 -1021 3 -1876 8 -1900 12 -68 57 -148 122 -217 34 -36 65 -65
69 -65 4 0 13 -5 20 -10 38 -32 96 -64 212 -115 107 -48 292 -90 480 -111 46
-5 315 -4 360 1 22 3 57 7 77 9 20 2 45 7 55 10 10 3 36 8 58 12 22 3 85 21
140 40 55 19 106 35 113 36 6 1 12 5 12 9 0 6 22 15 44 17 5 0 12 4 15 9 3 4
26 21 51 37 106 69 208 205 228 307 9 45 9 4696 0 4774 -4 33 -9 83 -12 110
-3 28 -8 59 -11 71 -2 12 -7 39 -11 60 -3 21 -12 66 -20 99 -8 33 -16 67 -18
75 -21 88 -43 157 -76 240 -12 30 -23 60 -24 65 -12 49 -138 298 -201 396 -25
38 -45 73 -45 78 0 4 -9 16 -20 26 -11 10 -20 24 -20 32 0 7 -7 16 -15 19 -8
4 -15 11 -15 18 0 6 -13 25 -28 43 -15 17 -43 52 -62 77 -61 80 -182 209 -276
293 -120 108 -138 123 -166 140 -16 10 -28 21 -28 25 0 4 -4 8 -10 8 -9 0 -35
19 -65 48 -8 6 -17 12 -22 12 -4 0 -20 11 -35 25 -15 14 -31 25 -36 25 -5 0
-27 13 -48 28 -82 59 -300 173 -454 238 -120 50 -342 128 -393 138 -12 2 -34
9 -49 15 -16 6 -28 8 -28 6 0 -2 -12 0 -27 6 -16 6 -39 12 -53 14 -14 2 -35 7
-47 10 -55 13 -118 25 -163 30 -14 2 -25 4 -25 5 0 4 -180 22 -222 23 -18 0
-33 3 -33 6 0 3 -106 6 -235 6 -129 0 -235 -2 -235 -5 0 -3 -26 -5 -58 -6 -60
0 -200 -11 -242 -18 -14 -3 -50 -7 -81 -11 -31 -3 -66 -7 -77 -10 -11 -2 -35
-6 -53 -9 -69 -12 -96 -17 -189 -37 -52 -11 -102 -23 -110 -27 -8 -3 -19 -7
-25 -7 -5 -1 -17 -5 -25 -8 -8 -4 -24 -8 -35 -10 -11 -2 -27 -7 -35 -10 -8 -3
-55 -20 -105 -37 -49 -17 -99 -34 -110 -40 -11 -5 -42 -18 -70 -30 -91 -39
-269 -132 -338 -176 -37 -24 -70 -44 -72 -44 -3 0 -41 -27 -85 -59 -55 -40
-87 -57 -100 -54 -11 3 -20 9 -20 14 0 5 -7 9 -15 9 -8 0 -15 4 -15 8 0 5 -12
15 -27 23 -16 8 -30 17 -33 20 -24 30 -420 239 -520 274 -3 1 -12 5 -20 8 -8
3 -42 16 -75 27 -33 12 -69 26 -80 30 -29 14 -108 39 -131 43 -10 1 -24 6 -30
9 -6 4 -26 10 -44 13 -18 3 -41 10 -51 16 -11 5 -19 8 -19 5 0 -3 -21 1 -47 9
-27 7 -61 16 -78 19 -16 2 -55 9 -85 15 -82 15 -102 19 -166 26 -33 4 -70 9
-84 11 -118 19 -648 19 -746 0 -17 -4 -84 -11 -189 -21 -22 -2 -40 -5 -40 -5
0 -1 -11 -3 -25 -5 -14 -1 -41 -6 -60 -9 -19 -4 -51 -9 -70 -13 -53 -9 -61
-10 -115 -23 -27 -7 -59 -14 -70 -16 -11 -1 -36 -8 -55 -14 -19 -6 -46 -13
-60 -16 -24 -5 -195 -63 -295 -100 -27 -11 -51 -22 -53 -26 -2 -5 -8 -8 -13
-8 -4 0 -33 -11 -64 -25 -30 -14 -58 -25 -61 -24 -4 0 -10 -3 -13 -8 -3 -4
-33 -22 -66 -39 -91 -47 -129 -68 -135 -74 -15 -15 -162 -110 -171 -110 -6 0
-8 -4 -4 -9 3 -5 -3 -12 -12 -15 -10 -3 -30 -16 -44 -28 -15 -13 -46 -39 -69
-58 -102 -83 -266 -258 -353 -374 -21 -28 -45 -60 -53 -71 -83 -110 -266 -450
-289 -535 -1 -3 -9 -22 -18 -44 -9 -21 -17 -41 -17 -44 0 -4 -11 -36 -24 -72
-29 -78 -71 -216 -87 -285 -14 -63 -15 -67 -22 -85 -3 -8 -13 -53 -22 -100 -9
-47 -18 -94 -21 -105 -10 -51 -36 -204 -39 -239 -6 -54 -14 -116 -19 -146 -4
-23 -7 -55 -21 -210 -14 -149 -17 -294 -19 -1020 -2 -432 -6 -810 -10 -840
-16 -137 -21 -160 -63 -275 -14 -38 -32 -77 -39 -85 -7 -8 -13 -19 -14 -25 -5
-27 -83 -128 -152 -199 -43 -43 -78 -75 -78 -72 0 4 -12 -4 -26 -17 -72 -67
-260 -144 -404 -165 -75 -11 -425 -4 -425 8 0 2 -19 6 -63 14 -72 14 -190 61
-253 101 -157 101 -241 213 -324 433 -13 34 -22 62 -18 62 3 0 1 6 -5 13 -6 7
-13 26 -16 42 -2 17 -5 30 -6 30 -1 0 -3 7 -5 15 -1 8 -8 40 -14 70 -6 30 -13
71 -15 90 -2 19 -7 51 -10 70 -26 164 -29 322 -30 2270 -2 1799 -3 1908 -20
1955 -39 110 -105 200 -199 272 -34 27 -64 48 -67 48 -3 0 -26 12 -51 27 -105
62 -271 113 -461 144 -40 6 -384 15 -389 10z"/>
</g>
</svg>
