<?xml version="1.0" encoding="utf-8"?>
<svg viewBox="141.407 121.155 10.813 6.009" xmlns="http://www.w3.org/2000/svg">
  <g transform="matrix(1, 0, 0, 1, 4.209736, 3.90414)">
    <path d="M 143.45 118.838 C 143.538 118.502 143.678 118.218 143.87 117.986 C 144.062 117.754 144.31 117.574 144.614 117.446 C 144.918 117.318 145.282 117.254 145.706 117.254 C 146.002 117.254 146.29 117.306 146.57 117.41 C 146.85 117.514 147.096 117.658 147.308 117.842 C 147.52 118.026 147.69 118.25 147.818 118.514 C 147.946 118.778 148.01 119.07 148.01 119.39 L 148.01 122.762 C 148.016 123.431 146.402 123.343 146.414 122.762 L 146.414 120.014 C 146.414 119.854 146.404 119.706 146.384 119.57 C 146.364 119.434 146.328 119.314 146.276 119.21 C 146.224 119.106 146.146 119.026 146.042 118.97 C 145.938 118.914 145.798 118.886 145.622 118.886 C 145.422 118.886 145.252 118.954 145.112 119.09 C 145.043 119.157 144.991 119.235 144.956 119.325 L 143.356 119.325 C 143.378 119.155 143.409 118.993 143.45 118.838 Z" style="white-space: pre; fill: rgb(163, 75, 75);"/>
    <path d="M 140.305 119.957 C 140.305 119.549 140.349 119.177 140.437 118.841 C 140.525 118.505 140.665 118.221 140.857 117.989 C 141.049 117.757 141.297 117.577 141.601 117.449 C 141.905 117.321 142.269 117.257 142.693 117.257 C 142.989 117.257 143.277 117.309 143.557 117.413 C 143.837 117.517 144.083 117.661 144.295 117.845 C 144.507 118.029 144.677 118.253 144.805 118.517 C 144.933 118.781 144.997 119.073 144.997 119.393 L 144.997 122.765 C 145 123.426 143.404 123.426 143.401 122.765 L 143.401 120.017 C 143.401 119.857 143.391 119.709 143.371 119.573 C 143.351 119.437 143.315 119.317 143.263 119.213 C 143.211 119.109 143.133 119.029 143.029 118.973 C 142.925 118.917 142.785 118.889 142.609 118.889 C 142.409 118.889 142.239 118.957 142.099 119.093 C 141.959 119.229 141.889 119.413 141.889 119.645 C 141.889 119.646 141.889 119.955 141.889 120.29 C 141.889 120.308 141.889 120.591 141.889 120.609 C 141.885 120.996 141.841 121.35 141.757 121.671 C 141.669 122.007 141.529 122.291 141.337 122.523 C 141.145 122.755 140.897 122.935 140.593 123.063 C 140.289 123.191 139.925 123.255 139.501 123.255 C 139.205 123.255 138.917 123.203 138.637 123.099 C 138.357 122.995 138.111 122.851 137.899 122.667 C 137.687 122.483 137.517 122.259 137.389 121.995 C 137.261 121.731 137.197 121.439 137.197 121.119 L 137.197 117.747 C 137.194 117.086 138.79 117.086 138.793 117.747 L 138.793 120.495 C 138.793 120.655 138.803 120.803 138.823 120.939 C 138.843 121.075 138.879 121.195 138.931 121.299 C 138.983 121.403 139.061 121.483 139.165 121.539 C 139.269 121.595 139.409 121.623 139.585 121.623 C 139.785 121.623 139.955 121.555 140.095 121.419 C 140.235 121.283 140.305 121.099 140.305 120.867 C 140.305 120.867 140.305 120.762 140.305 120.609 L 140.305 119.957 Z" style="white-space: pre; fill: rgb(202, 75, 75); stroke-linecap: round;"/>
  </g>
</svg>